<svg width="457" height="160" viewBox="0 0 457 160" fill="none" xmlns="http://www.w3.org/2000/svg">
<path d="M53.2373 48.4531C54.6001 48.2169 55.9418 48.1083 57.3225 48.131C64.6636 48.2531 71.2114 46.5668 72.6356 55.7816C72.6243 60.3998 71.2634 63.1583 70.7838 67.4486C70.3465 69.7994 69.9715 71.9809 69.3103 74.2843C66.2403 81.072 63.2265 85.0422 55.9014 86.9375C55.9381 87.7106 56.2933 88.0234 56.9411 88.6189C57.1932 88.8479 57.4491 89.0728 57.7085 89.2933C59.1421 90.4181 59.6835 90.9058 61.5408 91.2106C63.0892 91.1552 62.7959 90.5799 63.2452 88.6451C64.5106 83.198 68.3414 79.2685 72.8837 76.275L73.4444 75.873C76.9227 74.9384 85.2494 75.8208 87.191 74.7821C92.6202 71.8788 90.6836 55.0358 95.9989 50.9125C99.992 48.0192 105.452 48.6277 110.022 48.569C117.922 48.4674 125.82 48.6047 124.204 59.0218C123.616 61.5049 122.596 65.4574 122.353 67.965C122.097 69.3001 121.072 74.0855 120.98 75.2346C119.17 80.9456 118.108 85.8454 111.177 86.6384C106.392 86.9298 94.7977 87.4442 90.8017 85.565C88.07 86.3243 81.0943 87.3857 78.2121 87.1995C74.6324 89.0286 75.0293 91.7275 72.189 94.8201C69.5634 97.0303 66.95 98.6772 64.436 100.703C63.1002 101.544 62.8553 101.705 61.3024 102.062L59.6998 101.418L58.6311 100.812C54.1487 99.7761 47.0727 93.8261 43.9174 90.3517C43.5412 89.4718 42.855 88.8856 42.2007 87.1345C38.4637 87.0719 33.705 86.986 30.0235 86.4454C27.5112 86.0769 27.4179 84.4694 24.6882 85.6027L23.8838 86.5598C20.6679 89.9747 19.9255 91.5043 16.0053 94.8383C15.0083 95.6578 11.3931 98.5364 10.7348 99.3668C10.2256 99.1561 9.86638 98.8992 9.44201 98.5491C6.64615 96.2438 3.35528 94.4962 0.700961 92.0453C0.364459 91.735 0.104845 90.6583 0 90.2099L0.710198 89.9058C7.26124 87.1111 14.0824 76.5571 16.8033 69.8906C19.6164 65.5885 20.07 54.3662 21.7775 49.5355C22.1379 48.5161 32.9764 51.2895 33.9869 52.9023C34.4814 55.3914 32.0425 65.5937 31.3478 68.4741C30.6925 70.901 29.5599 73.2293 32.3383 74.5052C34.1689 75.0997 42.6101 76.6722 43.1303 73.9052C43.9231 69.5747 44.6056 65.1418 45.2861 60.7806C46.1646 55.1504 47.0208 50.1035 53.2373 48.4531ZM104.948 58.4335C104.622 61.3211 104.168 64.1928 103.589 67.0404C103.081 69.4269 102.2 72.7425 101.942 75.052L105.185 75.3317C108.732 72.7877 108.997 66.2424 109.864 62.3164C110.054 61.461 111.145 57.5134 110.945 56.9529C110.175 56.6515 109.114 56.8543 108.262 56.9417C107.121 57.3851 105.98 57.7756 104.948 58.4335ZM62.71 56.4645C58.4389 56.1676 56.1842 56.4613 55.1345 61.1883C54.6802 62.8599 53.9852 66.0966 53.8522 67.8614C53.4515 70.1852 53.1802 72.4096 52.8926 74.7482C56.6123 75.5459 57.0969 75.4795 59.2627 72.3152C60.9414 69.4092 60.6289 64.8065 61.3406 61.4025C61.7974 59.2178 61.9467 58.6155 62.71 56.4645Z" fill="#A9A9AA"/>
<path d="M108.262 56.9417C109.114 56.8543 110.175 56.6515 110.945 56.9529C111.145 57.5134 110.054 61.461 109.864 62.3164C108.997 66.2424 108.732 72.7877 105.185 75.3317L101.942 75.052C102.2 72.7425 103.081 69.4269 103.589 67.0404C104.168 64.1928 104.622 61.3211 104.948 58.4335C105.98 57.7756 107.121 57.3851 108.262 56.9417Z" fill="black" fill-opacity="0.01"/>
<path d="M381.521 22.5414C379.419 20.896 369.851 17.0821 370.048 14.0579C370.777 13.9108 372.842 15.2841 373.828 15.4359C378.973 16.2291 383.955 18.1197 388.943 19.6316C402.942 23.876 417.266 28.5508 429.712 36.3899C440.469 43.2795 453.08 54.0631 455.766 67.1528C456.38 70.1358 456.181 72.0908 456.348 74.922C456.967 85.3975 452.381 95.1195 446.582 103.812C445.309 105.711 443.959 107.558 442.533 109.347C442.159 109.822 440.729 111.468 440.546 111.757C437.93 114.604 435.594 117.579 432.875 120.507C430.569 122.993 426.133 126.382 424.293 128.421C423.971 128.685 422.74 129.655 422.55 129.914C409.547 140.479 397.151 148.812 381.669 155.451C378.988 156.601 375.041 158.526 372.277 159.012L370.053 158.747C369.247 158.179 369.462 158.487 369.207 157.53C370.7 156.15 372.949 154.962 374.701 153.809C399.622 137.402 438.252 106.594 427.595 72.142C427.531 71.348 427.328 70.4666 427.041 69.7251C420.713 53.38 408.002 41.3719 394.165 31.2277C391.881 29.5536 383.808 23.6213 381.521 22.5414Z" fill="#943395"/>
<path d="M138.013 35.0201C141.851 34.6286 146.951 34.6968 150.897 34.6428C150.93 38.3968 150.337 41.9633 149.667 45.6409C148.744 49.7987 148.041 54.6561 147.069 58.5926C146.203 63.2732 144.884 68.8591 143.449 73.3719C147.643 76.1649 154.934 75.4341 159.853 75.4251C164.435 69.2659 164.028 55.4301 166.951 48.5797C169.786 49.8296 172.939 50.7712 175.897 51.7397C180.343 53.1956 179.085 55.0633 178.228 58.8026C177.797 61.1049 177.405 63.4147 177.053 65.7306C176.128 68.1837 175.69 70.8726 174.793 73.4071C178.695 76.055 180.293 75.0813 184.864 75.4773C186.345 74.3477 187.117 73.6888 188.442 72.3829C189.528 65.6202 191.262 58.683 192.459 51.905C192.587 51.1819 193.113 50.146 193.536 49.5547C195.059 48.7655 205.059 52.1025 205.166 53.2653C205.499 56.8623 203.873 63.3518 203.105 67.0234C202.351 69.1036 200.219 73.2069 202.587 74.6843C208.486 78.0985 208.559 67.1071 209.598 64.623C210.837 61.6615 211.768 51.0783 213.154 49.5143C214.422 48.8189 217.217 49.6748 218.74 50.0032C219.319 50.1997 221.548 51.0007 222.015 51.0883C223.223 51.543 224.379 51.7852 224.938 52.9629C226.173 55.5689 223.797 60.7941 223.814 63.372C223.233 65.5995 222.681 67.7078 221.995 69.9075C221.703 70.9 221.515 72.0858 221.323 73.1145C228.081 80.9331 229.254 65.5044 230.023 62.5236C230.694 59.9234 232.147 50.0341 233.345 48.9455C235.168 48.6022 243.785 51.3914 245.17 53.0431C246.061 54.106 244.529 59.3307 244.162 60.8225C243.885 62.1606 243.398 64.1768 243.216 65.4756C242.731 67.4204 241.773 71.3962 241.548 73.274C239.546 81.4969 239.267 85.4559 230.215 86.8554C224.131 86.4294 223.745 88.2611 217.928 84.8457L217.239 85.0856C216.243 85.5418 215.129 86.0874 214.107 86.4494C210.176 87.2759 204.621 86.9715 200.629 86.4497C197.235 84.8652 198.434 84.3221 194.877 86.2007L193.87 86.4534C189.966 87.4879 176.319 87.4579 172.59 85.7378C172.04 85.1555 171.931 85.0834 171.231 84.6899C170.437 84.7213 170.744 84.612 170.082 85.162C169.563 85.4881 168.442 86.2379 167.944 86.4746C167.112 86.6359 166.13 86.8542 165.307 86.9762C164.69 86.8125 158.596 86.8776 157.559 86.8799C150.691 86.8941 143.878 87.0087 137.006 86.8716L135.939 86.7738C129.968 85.3386 129.441 82.0712 129.421 76.7422C131.268 69.3565 132.767 61.1211 134.367 53.6034C135.647 47.4219 136.863 41.227 138.013 35.0201Z" fill="#943395"/>
<path d="M350.769 14.5473C361.853 10.9991 370.026 19.4776 378.898 24.5427C382.29 26.4783 385.688 28.7846 388.9 30.9958L388.998 31.0984C391.794 33.9853 405.908 42.0104 405.631 46.4271C404.13 47.2815 394.722 40.0344 392.498 38.9278C391.102 38.0521 389.15 37.1313 387.645 36.3705L384.954 35.1049C384.689 34.9333 383.144 34.3169 382.757 34.1556L381.511 33.6642C379.03 32.6492 377.397 32.021 374.829 31.2867C368.725 29.6048 365.47 28.4987 359.402 31.1314C350.829 34.8662 344.923 47.4982 342.674 56.2212C341.249 61.5565 340.455 65.9369 339.519 71.3503L339.461 71.6053C337.699 80.301 337.909 97.0539 338.575 106.067C339.836 117.818 343.368 134.952 353.059 142.738C353.613 143.179 354.177 143.608 354.749 144.025C356.89 145.971 359.789 146.152 362.617 146.602C377.54 147.694 397.018 127.365 401.619 127.23C400.933 128.526 399.185 129.894 398.179 131.024C394.13 135.578 389.926 138.693 385.109 142.319L366.881 155.781C365.76 156.414 364.514 157.152 363.373 157.723L361.169 158.481C357.846 158.935 355.814 158.772 352.604 157.857C334.796 150.96 327.496 127.526 324.803 110.372C324.351 107.491 323.692 104.454 323.42 101.566C322.139 88.479 322.501 75.2826 324.501 62.2858C326.728 47.3851 330.023 34.2265 339.841 22.2708C343.438 18.1118 345.974 16.797 350.769 14.5473Z" fill="#A9A9AA"/>
<path d="M253.516 99.1622C251.459 97.4849 244.644 93.5628 243.748 90.7142C243.553 90.0929 246.362 88.5774 247.071 88.0268C252.028 84.1709 255.75 79.0292 258.801 73.5873C260.835 69.9941 261.262 67.3512 262.378 63.7435C263.189 61.1198 264.664 50.3326 265.705 49.2513C267.493 48.857 276.205 51.7092 277.755 52.6962C278.724 55.0017 274.123 68.9551 273.866 72.0625C273.511 74.5408 277.9 75.3371 279.819 75.3074C284.812 75.2295 286.435 76.6467 290.391 73.0437C291.287 69.4825 293.936 51.4749 295.521 49.6954C297.855 48.7956 301.737 50.8405 303.994 51.5389C308.954 53.0757 307.311 55.5468 306.687 59.3233C304.892 66.8385 303.422 82.0436 296.997 86.0286C296.909 86.083 296.819 86.1369 296.732 86.1896C293.959 86.8648 291.687 86.8623 288.866 86.9189C283.322 86.8535 273.104 87.9799 269.39 84.5275C266.861 87.0985 265.471 88.7831 263.177 91.6265C261.145 93.5641 255.94 97.976 253.516 99.1622Z" fill="#943395"/>
<path d="M426.645 27.7106C420.946 28.949 415.075 26.5256 411.907 21.6265C408.739 16.7274 408.936 10.3777 412.404 5.68575C415.871 0.993672 421.882 -1.05916 427.494 0.532104C433.105 2.12339 437.144 7.02583 437.634 12.8396C438.095 18.3322 435.297 23.5855 430.482 26.2639C429.281 26.9315 427.988 27.4189 426.645 27.7106Z" fill="#943395"/>
<path d="M286.517 104.231C289.86 104.227 291.864 103.502 292.032 107.487C291.585 110.037 291.031 112.378 291.001 114.973C289.084 115.087 280.609 115.412 279.078 114.452C277.528 113.48 280.604 106.299 281.727 104.702C283.122 104.499 285.072 104.372 286.517 104.231Z" fill="#943395"/>
<path d="M164.149 91.6812C166.495 91.9396 168.86 91.9875 171.214 91.8245C172.37 91.8217 173.36 91.6182 174.244 92.1258C174.344 92.6926 174.334 92.7723 174.226 93.3391C174.01 95.1241 173.741 97.0421 173.609 98.8241C173.424 100.017 173.379 101.434 172.68 102.314C169.95 103.899 165.016 101.859 161.491 102.997C161.112 102.357 161.08 101.525 160.992 100.776C161.819 97.8609 163.094 94.5213 164.149 91.6812Z" fill="#943395"/>
<path d="M291.599 91.632C293.918 91.5728 296.547 91.646 298.906 91.636C299.879 91.7169 301.689 91.3923 301.931 92.2994C301.305 95.1039 301.654 96.7213 300.541 99.6726C299.987 101.551 300.144 102.096 298.142 102.647C293.646 102.439 285.973 103.838 289.295 96.4387C290.074 94.7066 290.648 93.3488 291.599 91.632Z" fill="#943395"/>
<path d="M158.845 91.5913C159.691 91.8864 159.415 91.6877 159.898 92.5723C159.536 93.8252 158.712 97.2509 158.653 98.5812C158.323 100.053 158.275 101.7 158.187 103.217C156.998 103.05 155.87 102.878 154.668 102.803C152.987 102.598 148.054 102.828 147.127 101.927C146.359 100.605 147.382 97.3555 147.668 95.7183C148.779 89.5524 153.2 92.3885 158.521 91.632L158.845 91.5913Z" fill="#943395"/>
<path d="M223.37 44.6321C224.608 42.6017 224.451 36.4754 225.909 35.3204C227.584 33.995 234.863 34.7508 237.06 34.9586C236.69 37.5852 236.084 40.343 235.634 42.9914L234.761 44.7522C232.172 46.0713 227.467 44.9342 224.726 45.6046C223.58 45.2433 223.834 45.51 223.37 44.6321Z" fill="#943395"/>
<path d="M276.936 91.7345C280.301 91.6228 283.668 91.5841 287.033 91.6181C286.963 94.3719 286.901 98.6153 285.553 100.976C283.696 102.697 275.935 103.006 273.993 101.518C273.286 100.221 275.331 96.245 275.473 94.4847C275.733 93.1035 275.675 92.4905 276.936 91.7345Z" fill="#943395"/>
<path d="M220.103 21.9993C221.95 21.889 223.964 21.9621 225.829 21.9364C227.252 21.9169 229.748 21.7389 230.639 22.9369C231.089 24.9856 230.195 28.6969 229.616 30.7558C229.391 31.5508 228.79 31.6778 228.111 31.9802C224.082 32.7632 215.959 33.6374 218.323 26.8682C218.874 25.2867 219.339 23.4575 220.103 21.9993Z" fill="#943395"/>
<path d="M218.584 45.8321C215.542 44.6376 211.653 45.6338 209.345 44.914C208.225 43.3984 209.589 37.5056 210.589 36.0322C211.717 34.3703 220.067 34.8684 221.385 35.8971C221.957 37.8629 220.616 41.0706 220.074 43.2808C219.638 44.4608 219.588 45.0426 218.584 45.8321Z" fill="#943395"/>
<path d="M61.68 130.405C60.5121 130.405 59.4733 130.178 58.5634 129.726C57.6671 129.286 56.961 128.654 56.445 127.829C55.9289 127.004 55.6709 126.039 55.6709 124.934C55.6709 124.122 55.8067 123.264 56.0783 122.359C56.3499 121.453 56.6622 120.655 57.0153 119.963L58.4004 120.602C57.64 122.172 57.2597 123.543 57.2597 124.714C57.2597 125.979 57.64 126.944 58.4004 127.609C59.1609 128.275 60.2541 128.608 61.68 128.608C62.6306 128.608 63.4657 128.461 64.1855 128.168C64.9188 127.889 65.5027 127.53 65.9373 127.09C66.3718 126.651 66.6638 126.205 66.8132 125.753C66.8403 125.659 66.6774 125.546 66.3243 125.413C65.9848 125.267 65.3465 125.06 64.4095 124.794C63.3367 124.501 62.5898 124.189 62.1689 123.856C61.7479 123.51 61.5374 123.004 61.5374 122.339C61.5374 121.354 61.7954 120.422 62.3114 119.543C62.8275 118.665 63.5065 117.959 64.3484 117.427C65.1904 116.895 66.0866 116.628 67.0372 116.628C67.4039 116.628 67.7638 116.675 68.1168 116.768C68.4699 116.848 68.7415 116.955 68.9316 117.088L68.3816 118.665C68.015 118.505 67.5668 118.425 67.0372 118.425C66.3447 118.425 65.6996 118.605 65.1021 118.964C64.5046 119.324 64.0225 119.776 63.6558 120.322C63.3028 120.868 63.1262 121.394 63.1262 121.899C63.1262 122.152 63.2688 122.372 63.554 122.558C63.8528 122.745 64.4435 122.964 65.3262 123.217C66.1953 123.47 66.8403 123.69 67.2613 123.876C67.6959 124.062 67.9946 124.269 68.1576 124.495C68.3205 124.708 68.402 124.987 68.402 125.333C68.402 126.145 68.11 126.944 67.5261 127.729C66.9558 128.514 66.1545 129.153 65.1225 129.646C64.104 130.152 62.9565 130.405 61.68 130.405Z" fill="#A9A9AA"/>
<path d="M68.8007 129.965C69.6698 129.672 70.4574 129.286 71.1635 128.807C71.8697 128.328 72.4197 127.816 72.8135 127.27C73.2209 126.724 73.4246 126.212 73.4246 125.733C73.4246 125.054 73.0783 123.39 72.3857 120.741L73.9542 120.162C74.253 121.107 74.4974 122.106 74.6875 123.157C74.8912 124.209 74.9931 125.067 74.9931 125.733C74.9931 126.518 74.7554 127.283 74.2801 128.029C73.8048 128.787 73.1462 129.466 72.3042 130.065C71.4759 130.677 70.5389 131.163 69.4932 131.523L68.8007 129.965Z" fill="#A9A9AA"/>
<path d="M76.4138 129.925C78.5866 129.459 80.1958 128.827 81.2415 128.029C82.2871 127.243 82.81 126.252 82.81 125.054C82.7964 124.269 82.6877 123.49 82.484 122.718C82.2803 121.946 81.9816 121.3 81.5878 120.781C81.194 120.249 80.7255 119.963 80.1823 119.923C79.8835 119.909 79.5915 120.029 79.3064 120.282C79.0212 120.535 78.7903 120.861 78.6138 121.26C78.4372 121.66 78.349 122.039 78.349 122.398C78.349 122.691 78.4101 122.938 78.5323 123.137C78.7496 123.457 79.1162 123.696 79.6323 123.856C80.1619 124.016 80.7662 124.095 81.4452 124.095C82.097 124.095 82.6945 124.036 83.2377 123.916V125.613C82.6538 125.773 81.9748 125.852 81.2007 125.852C80.3045 125.852 79.4965 125.719 78.7767 125.453C78.057 125.174 77.541 124.734 77.2286 124.135C77.0114 123.709 76.9027 123.21 76.9027 122.638C76.9027 121.946 77.0521 121.254 77.3509 120.562C77.6632 119.87 78.0706 119.297 78.573 118.845C79.0891 118.392 79.6391 118.166 80.223 118.166C81.0242 118.166 81.7304 118.512 82.3415 119.204C82.9525 119.896 83.4211 120.768 83.747 121.819C84.0729 122.858 84.2358 123.883 84.2358 124.894C84.2358 126.545 83.5908 127.949 82.3007 129.107C81.0242 130.265 79.2385 131.07 76.9435 131.523L76.4138 129.925Z" fill="#A9A9AA"/>
<path d="M86.0656 125.673C86.1471 124.848 86.1878 123.69 86.1878 122.199C86.1878 120.641 86.1471 119.038 86.0656 117.387C85.9977 115.723 85.9162 114.599 85.8212 114.013L87.4508 113.674C87.5458 114.273 87.6341 115.417 87.7156 117.108C87.8106 118.798 87.8582 120.435 87.8582 122.019C87.8582 123.723 87.8038 125.007 87.6952 125.872L86.0656 125.673ZM83.3157 112.556C83.5466 111.983 83.8453 111.551 84.212 111.258C84.5786 110.952 84.9792 110.799 85.4138 110.799C85.6311 110.799 85.8348 110.825 86.0249 110.878C86.215 110.932 86.4255 111.012 86.6563 111.118C86.8329 111.185 87.0094 111.251 87.186 111.318C87.3625 111.371 87.539 111.398 87.7156 111.398C87.9736 111.398 88.2316 111.324 88.4896 111.178C88.7476 111.032 88.9649 110.832 89.1415 110.579L89.8137 111.158C89.5421 111.544 89.2161 111.85 88.8359 112.076C88.4693 112.303 88.0958 112.416 87.7156 112.416C87.4847 112.416 87.2742 112.389 87.0841 112.336C86.9076 112.283 86.6971 112.203 86.4526 112.096C86.2354 112.003 86.052 111.937 85.9027 111.897C85.7533 111.843 85.5903 111.817 85.4138 111.817C85.1286 111.817 84.8706 111.917 84.6397 112.116C84.4089 112.303 84.2188 112.582 84.0694 112.955L83.3157 112.556Z" fill="#A9A9AA"/>
<path d="M90.438 129.925C92.6107 129.459 94.2199 128.827 95.2656 128.029C96.3112 127.243 96.8341 126.252 96.8341 125.054C96.8341 124.282 96.7322 123.51 96.5285 122.738C96.3248 121.953 96.0193 121.3 95.6119 120.781C95.2181 120.249 94.7496 119.963 94.2064 119.923C93.9076 119.909 93.6156 120.029 93.3305 120.282C93.0453 120.535 92.8144 120.861 92.6379 121.26C92.4614 121.66 92.3731 122.039 92.3731 122.398C92.3731 122.691 92.4342 122.938 92.5564 123.137C92.7737 123.483 93.2829 123.716 94.0842 123.836C94.8854 123.942 95.9174 123.996 97.1804 123.996H98.9729L99.0747 124.894L98.9729 125.793L96.5081 125.812C95.123 125.812 93.9891 125.699 93.1064 125.473C92.2237 125.247 91.6058 124.801 91.2528 124.135C91.0355 123.709 90.9268 123.21 90.9268 122.638C90.9268 121.946 91.0762 121.254 91.375 120.562C91.6873 119.87 92.0947 119.297 92.5972 118.845C93.1132 118.392 93.6632 118.166 94.2471 118.166C95.0483 118.166 95.7545 118.512 96.3656 119.204C96.9767 119.896 97.4452 120.768 97.7711 121.819C98.097 122.858 98.26 123.883 98.26 124.894C98.26 126.545 97.6149 127.949 96.3248 129.107C95.0483 130.265 93.2626 131.07 90.9676 131.523L90.438 129.925Z" fill="#A9A9AA"/>
<path d="M98.7164 123.996H102.953L103.055 124.894L102.953 125.793H98.7164V123.996Z" fill="#A9A9AA"/>
<path d="M102.755 123.996H106.991L107.093 124.894L106.991 125.793H102.755V123.996Z" fill="#A9A9AA"/>
<path d="M106.793 123.996H111.03L111.131 124.894L111.03 125.793H106.793V123.996Z" fill="#A9A9AA"/>
<path d="M110.831 123.996H115.068L115.17 124.894L115.068 125.793H110.831V123.996Z" fill="#A9A9AA"/>
<path d="M114.869 123.996H119.106L119.208 124.894L119.106 125.793H114.869V123.996Z" fill="#A9A9AA"/>
<path d="M118.907 123.996H119.966C121.053 123.996 121.834 123.856 122.309 123.576C122.798 123.297 123.042 122.864 123.042 122.279C123.042 121.866 122.906 121.234 122.635 120.382C122.363 119.53 122.139 118.911 121.963 118.525L123.429 117.766C123.687 118.326 123.952 119.064 124.224 119.983C124.495 120.888 124.631 121.66 124.631 122.299C124.617 123.443 124.21 124.315 123.409 124.914C122.608 125.5 121.46 125.793 119.966 125.793H118.907V123.996ZM122.126 113.694L123.572 115.111L122.126 116.529L120.679 115.111L122.126 113.694Z" fill="#A9A9AA"/>
<path d="M130.964 129.965C131.833 129.672 132.621 129.286 133.327 128.807C134.033 128.328 134.583 127.816 134.977 127.27C135.384 126.724 135.588 126.212 135.588 125.733C135.588 125.054 135.242 123.39 134.549 120.741L136.118 120.162C136.417 121.107 136.661 122.106 136.851 123.157C137.055 124.209 137.157 125.067 137.157 125.733C137.157 126.518 136.919 127.283 136.444 128.029C135.968 128.787 135.31 129.466 134.468 130.065C133.639 130.677 132.702 131.163 131.657 131.523L130.964 129.965Z" fill="#A9A9AA"/>
<path d="M143.14 125.852C142.067 125.852 141.151 125.713 140.39 125.433C139.63 125.14 139.026 124.808 138.577 124.435L139.372 123.117C139.426 123.144 139.623 123.257 139.963 123.457C140.316 123.643 140.757 123.803 141.287 123.936C141.83 124.069 142.4 124.135 142.998 124.135C143.731 124.135 144.329 124.036 144.79 123.836C145.266 123.623 145.571 123.39 145.707 123.137C145.775 122.977 145.809 122.811 145.809 122.638C145.809 122.012 145.456 121.24 144.749 120.322C144.057 119.39 142.998 118.412 141.572 117.387L142.488 115.83C143.996 116.948 145.17 118.106 146.012 119.304C146.868 120.488 147.296 121.6 147.296 122.638C147.296 123.117 147.207 123.55 147.031 123.936C146.759 124.548 146.27 125.021 145.564 125.353C144.858 125.686 144.05 125.852 143.14 125.852Z" fill="#A9A9AA"/>
<path d="M156.536 132.341C156.387 130.797 156.271 129.466 156.19 128.348C156.108 127.23 156.068 126.145 156.068 125.094C156.068 124.561 156.074 124.182 156.088 123.956C156.115 123.37 156.312 122.898 156.679 122.538C157.059 122.166 157.507 121.979 158.023 121.979C158.254 121.979 158.478 122.019 158.695 122.099C159.239 120.994 159.816 120.102 160.427 119.424C161.038 118.745 161.703 118.385 162.423 118.345C163.116 118.306 163.72 118.485 164.236 118.885C164.765 119.271 165.166 119.79 165.438 120.442C165.723 121.094 165.865 121.773 165.865 122.478C165.865 123.17 165.723 123.809 165.438 124.395C165.153 124.967 164.732 125.4 164.175 125.693C163.903 125.826 163.618 125.892 163.319 125.892C162.817 125.892 162.179 125.733 161.404 125.413C160.63 125.094 159.626 124.581 158.39 123.876C158.281 123.823 158.193 123.796 158.125 123.796C157.881 123.796 157.752 123.949 157.738 124.255L157.718 125.014C157.718 126.292 157.84 128.368 158.084 131.243L158.206 132.72L156.597 133L156.536 132.341ZM163.666 124.115C163.91 123.996 164.093 123.796 164.216 123.516C164.338 123.237 164.399 122.911 164.399 122.538C164.399 121.899 164.229 121.314 163.89 120.781C163.564 120.249 163.136 119.983 162.606 119.983C161.873 119.983 161.004 120.914 159.999 122.778C160.732 123.244 161.384 123.596 161.954 123.836C162.525 124.076 162.973 124.195 163.299 124.195C163.448 124.195 163.57 124.169 163.666 124.115Z" fill="#A9A9AA"/>
<path d="M172.212 125.793C171.247 125.793 170.494 125.639 169.951 125.333C169.407 125.014 169.02 124.541 168.789 123.916C168.572 123.29 168.464 122.465 168.464 121.44C168.464 119.923 168.43 118.206 168.362 116.289C168.307 114.359 168.219 113.008 168.097 112.236L169.727 111.897C169.835 112.576 169.917 113.767 169.971 115.47C170.039 117.161 170.073 118.698 170.073 120.082V120.921L170.052 121.62C170.052 122.245 170.107 122.725 170.215 123.057C170.324 123.377 170.528 123.616 170.826 123.776C171.139 123.922 171.601 123.996 172.212 123.996H172.313L172.415 124.894L172.313 125.793H172.212Z" fill="#A9A9AA"/>
<path d="M172.119 123.996H176.356L176.458 124.894L176.356 125.793H172.119V123.996Z" fill="#A9A9AA"/>
<path d="M176.157 123.996H180.394L180.496 124.894L180.394 125.793H176.157V123.996Z" fill="#A9A9AA"/>
<path d="M180.195 123.996H184.432L184.534 124.894L184.432 125.793H180.195V123.996Z" fill="#A9A9AA"/>
<path d="M184.234 123.996H188.471L188.572 124.894L188.471 125.793H184.234V123.996Z" fill="#A9A9AA"/>
<path d="M198.823 125.793C198.117 125.793 197.492 125.606 196.949 125.234C196.406 124.861 195.89 124.355 195.401 123.716C194.912 123.064 194.193 122.006 193.242 120.542L194.24 119.563C194.987 120.735 195.584 121.62 196.033 122.219C196.494 122.818 196.942 123.264 197.377 123.556C197.812 123.849 198.294 123.996 198.823 123.996H199.088L199.19 124.894L199.088 125.793H198.823ZM188.272 123.996H188.781C190.125 123.996 191.178 123.889 191.938 123.676C192.712 123.463 193.228 123.124 193.486 122.658C193.581 122.512 193.629 122.325 193.629 122.099C193.629 121.46 193.235 120.661 192.448 119.703C191.673 118.745 190.621 117.76 189.29 116.748L189.494 115.031L196.949 111.897L197.479 113.354L191.103 116.069C192.19 116.961 193.12 117.953 193.894 119.044C194.681 120.136 195.075 121.167 195.075 122.139C195.075 122.498 195.014 122.838 194.892 123.157C194.24 124.914 192.203 125.793 188.781 125.793H188.272V123.996ZM189.718 112.695L196.175 110L196.481 110.759L189.616 113.634L189.718 112.695Z" fill="#A9A9AA"/>
<path d="M215.354 125.793C214.607 125.793 213.948 125.586 213.378 125.174C212.808 124.761 212.394 124.169 212.136 123.397C212 123.011 211.749 121.879 211.382 120.003L212.869 119.623C213.168 121.274 213.398 122.325 213.561 122.778C213.697 123.19 213.908 123.497 214.193 123.696C214.492 123.896 214.879 123.996 215.354 123.996H215.456L215.558 124.894L215.456 125.793H215.354ZM210.221 123.996H210.262C210.764 123.996 211.219 123.856 211.626 123.576C212.047 123.297 212.278 122.977 212.319 122.618L213.439 122.818C213.385 123.377 213.202 123.883 212.889 124.335C212.59 124.788 212.21 125.147 211.749 125.413C211.287 125.666 210.791 125.793 210.262 125.793H210.221V123.996ZM204.721 123.996H204.782C205.543 123.996 206.194 123.53 206.738 122.598C206.914 122.279 207.05 121.899 207.145 121.46C207.254 121.021 207.355 120.535 207.451 120.003L208.958 120.082C208.944 120.136 208.897 120.382 208.815 120.821C208.734 121.26 208.693 121.686 208.693 122.099C208.693 122.738 208.815 123.217 209.06 123.536C209.318 123.843 209.718 123.996 210.262 123.996H210.302L210.404 124.894L210.302 125.793H210.262C209.474 125.793 208.842 125.566 208.367 125.114C207.905 124.648 207.627 124.002 207.532 123.177L207.858 123.157C207.573 123.916 207.152 124.548 206.595 125.054C206.052 125.546 205.441 125.793 204.762 125.793H204.721V123.996ZM198.895 125.793L198.793 124.894L198.895 123.996H198.997C199.5 123.996 199.975 123.883 200.423 123.656C200.871 123.43 201.217 123.13 201.462 122.758C201.72 122.398 201.917 122.019 202.053 121.62C202.202 121.22 202.351 120.748 202.501 120.202L204.028 120.362C204.001 120.442 203.947 120.641 203.865 120.961C203.784 121.28 203.716 121.58 203.662 121.859C203.621 122.139 203.601 122.392 203.601 122.618C203.601 123.536 203.981 123.996 204.741 123.996H204.782L204.884 124.894L204.782 125.793H204.721C204.096 125.793 203.573 125.613 203.152 125.253C202.745 124.881 202.501 124.382 202.419 123.756C201.998 124.422 201.496 124.927 200.912 125.273C200.328 125.62 199.683 125.793 198.977 125.793H198.895ZM206.575 115.151L207.96 116.489L206.575 117.846L205.21 116.489L206.575 115.151ZM210.323 115.151L211.687 116.489L210.323 117.846L208.938 116.489L210.323 115.151ZM208.449 113.115L209.671 114.312L208.449 115.53L207.206 114.312L208.449 113.115Z" fill="#A9A9AA"/>
<path d="M215.226 123.996H219.463L219.565 124.894L219.463 125.793H215.226V123.996Z" fill="#A9A9AA"/>
<path d="M219.264 123.996H223.501L223.603 124.894L223.501 125.793H219.264V123.996Z" fill="#A9A9AA"/>
<path d="M223.302 123.996H227.539L227.641 124.894L227.539 125.793H223.302V123.996Z" fill="#A9A9AA"/>
<path d="M227.34 123.996H231.577L231.679 124.894L231.577 125.793H227.34V123.996Z" fill="#A9A9AA"/>
<path d="M231.378 123.996H231.562C232.607 123.996 233.422 123.956 234.006 123.876C234.59 123.783 235.018 123.643 235.289 123.457C235.561 123.27 235.758 123.017 235.88 122.698C235.962 122.458 236.002 122.172 236.002 121.839C236.002 121.413 235.921 120.681 235.758 119.643L237.265 119.364C237.428 120.202 237.517 121.267 237.53 122.558C237.72 123.516 238.338 123.996 239.384 123.996H239.526L239.628 124.894L239.526 125.793H239.384C238.705 125.793 238.107 125.6 237.591 125.214C237.089 124.814 236.736 124.308 236.532 123.696L236.939 123.776C236.763 124.282 236.471 124.681 236.064 124.974C235.656 125.267 235.093 125.48 234.373 125.613C233.667 125.733 232.73 125.793 231.562 125.793H231.378V123.996ZM235.391 130.444L233.945 129.027L235.391 127.609L236.838 129.027L235.391 130.444ZM231.745 130.444L230.299 129.027L231.745 127.609L233.191 129.027L231.745 130.444Z" fill="#A9A9AA"/>
<path d="M239.316 123.996H240.13C241.583 123.996 242.609 123.863 243.206 123.596C243.804 123.317 244.102 122.864 244.102 122.239C244.089 121.826 243.946 121.201 243.675 120.362C243.417 119.51 243.193 118.898 243.002 118.525L244.469 117.766C244.741 118.286 245.005 118.991 245.263 119.883C245.535 120.761 245.671 121.527 245.671 122.179C245.671 123.363 245.23 124.262 244.347 124.874C243.464 125.486 242.133 125.793 240.354 125.793H239.316V123.996ZM243.227 129.826L241.841 128.488L243.227 127.13L244.591 128.488L243.227 129.826ZM239.478 129.826L238.114 128.488L239.478 127.13L240.864 128.488L239.478 129.826ZM241.353 131.862L240.13 130.664L241.353 129.446L242.595 130.664L241.353 131.862Z" fill="#A9A9AA"/>
</svg>
